<?xml version="1.0" encoding="utf-8"?>
<!-- Svg Vector Icons : http://www.onlinewebfonts.com/icon -->
<!DOCTYPE svg PUBLIC "-//W3C//DTD SVG 1.1//EN" "http://www.w3.org/Graphics/SVG/1.1/DTD/svg11.dtd">
<svg version="1.1" xmlns="http://www.w3.org/2000/svg" xmlns:xlink="http://www.w3.org/1999/xlink" x="0px" y="0px" viewBox="0 0 1000 1000" enable-background="new 0 0 1000 1000" xml:space="preserve">
<metadata> Svg Vector Icons : http://www.onlinewebfonts.com/icon </metadata>
<g><g transform="translate(0.000000,511.000000) scale(0.100000,-0.100000)"><path d="M3470.9,4975c-236-74.3-423.9-255.6-493.8-485.1c-43.7-137.7-43.7-205.4-43.7-4016.2c0-3817.3,0-3878.5,43.7-3961.5c111.4-220.7,369.3-281.9,548.5-133.3c159.5,131.1,150.8,2.2,150.8,2095.5V355.8l2803.4,4.4l2803.4,6.6l-782.2,1140.6l-784.4,1140.6l788.8,1182.1L9291.9,5010l-2855.9-2.2C3962.5,5007.8,3562.6,5003.4,3470.9,4975z"/><path d="M1941.3-3336.9c-635.9-133.3-1059.8-325.6-1182.1-535.3c-67.7-113.6-67.7-168.3-2.2-281.9c61.2-104.9,126.7-157.3,332.1-260c288.4-144.2,758.2-262.2,1343.8-336.5c417.4-52.4,1444.3-52.4,1877,0c806.3,98.3,1381,281.9,1619.1,520c330,330-139.8,701.4-1129.7,893.7c-270.9,52.5-292.8,52.5-292.8,15.3c0-17.5,65.6-59,144.2-91.8c565.9-240.4,277.5-565.9-635.9-714.5c-229.4-37.1-1099.1-37.1-1332.9,0c-423.9,69.9-788.8,203.2-887.1,327.8c-102.7,133.3-10.9,275.3,251.3,386.8c78.7,32.8,144.2,74.3,144.2,91.8C2190.4-3286.7,2181.7-3286.7,1941.3-3336.9z"/></g></g>
</svg>